<?xml version="1.0" encoding="UTF-8"?> <svg xmlns="http://www.w3.org/2000/svg" xmlns:xlink="http://www.w3.org/1999/xlink" version="1.1" id="artwork" x="0px" y="0px" viewBox="0 0 223.6 56.4" style="enable-background:new 0 0 223.6 56.4;" xml:space="preserve"> <style type="text/css"> .st0{fill:#814D3B;} .st1{fill:#9BDAE9;} .st2{fill:url(#SVGID_1_);} </style> <g> <g> <path class="st0" d="M51,26.6C50.2,15.1,41,5.9,29.5,5.2L28.1,0l-1.4,5.2C15.2,6,6.1,15.3,5.4,26.8L0,28.3l5.4,1.4 c0.8,11.5,10,20.8,21.5,21.4l1.4,5.2l1.4-5.2c11.5-0.8,20.6-10,21.3-21.6l5.4-1.5L51,26.6z M28.2,6.8c8.5,0,15.9,5.1,19.2,12.4 l-4.9-0.1c0,0,0,0-1.3,0.3c-1.3,0.3-3.9,5.2-3.9,5.2l-1.6,0.2v0.5c0,0-3.4-0.3-3.8-0.2c-0.3,0.1-0.3,0.3-0.3,0.3s-6.4,3.9-6.4,4.2 s-3.6,0.6-3.6,0.6L20,31.7l-3.9,0.9l-5.9-9.4c0,0,0,0-0.1-0.3c-0.1-0.3-0.9-0.3-0.9-0.3l-1.4,0C10.2,13.5,18.5,6.8,28.2,6.8z"></path> <path class="st1" d="M40.5,45.5c-3.1-0.4-6.2-1-8.7-2.1c-6.7-3-1.3-3.2-1.3-3.2c12.9-1.8-2-5.8-12.8-5l0.2,0.2 c0.4,0,7.7-0.1,10.9,2.2c3.3,2.4-4.1,2.2-4.1,2.2c-12,0.8,0.3,5.2,2.4,7.3c0.6,0.6,0.9,1.5,1,2.4c0,0,0,0,0.1,0 C32.8,49.6,37.1,48.1,40.5,45.5z"></path> <linearGradient id="SVGID_1_" gradientUnits="userSpaceOnUse" x1="27.6057" y1="33.8025" x2="27.6057" y2="6.0515"> <stop offset="0" style="stop-color:#FFFFFF"></stop> <stop offset="1" style="stop-color:#9BDAE9"></stop> </linearGradient> <path class="st2" d="M28.2,6.8c-9.7,0-18,6.7-20.4,15.7l1.4,0c0,0,0.8,0,0.9,0.3c0.1,0.3,0.1,0.3,0.1,0.3l5.9,9.4l3.9-0.9l1.7-1.4 c0,0,3.6-0.2,3.6-0.6s6.4-4.2,6.4-4.2s0-0.2,0.3-0.3c0.3-0.1,3.8,0.2,3.8,0.2v-0.5l1.6-0.2c0,0,2.6-4.8,3.9-5.2 c1.3-0.3,1.3-0.3,1.3-0.3l4.9,0.1C44.1,11.9,36.7,6.8,28.2,6.8z"></path> </g> <g> <g> <g> <path class="st0" d="M85.4,22.6c0,0.8,0,4.2,0.1,4.9c-0.2,0.3-0.6,0.4-0.9,0.4c-0.4-0.6-1.2-1.5-3.2-3.8l-6.5-7.4 c-1.8-2-2.7-3.1-3.1-3.5c-0.1,0-0.1,0.3-0.1,1.8v5.4c0,2.1,0,4.6,0.5,5.4c0.2,0.4,0.7,0.6,1.4,0.7l0.6,0.1 c0.2,0.2,0.2,0.7-0.1,0.8c-1-0.1-2.1-0.1-3.1-0.1c-1.2,0-1.9,0-2.9,0.1c-0.2-0.1-0.3-0.6-0.1-0.8l0.6-0.1c0.5-0.1,1-0.2,1.2-0.6 c0.4-0.9,0.4-3.3,0.4-5.4v-6.5c0-2.2,0-2.6-0.9-3.4c-0.3-0.2-1.1-0.5-1.5-0.6l-0.4-0.1c-0.2-0.2-0.2-0.7,0.1-0.8 c1,0.1,2.6,0.1,3.3,0.1c0.6,0,1.2,0,1.9-0.1c0.5,1.2,3.5,4.7,4.4,5.7l2.8,3c1.2,1.3,3.7,4.2,4,4.4C84,22,84,21.9,84,21.4V16 c0-2.1,0-4.6-0.5-5.4c-0.2-0.4-0.7-0.6-1.4-0.7l-0.6-0.1c-0.2-0.2-0.2-0.7,0.1-0.8c1.1,0.1,2.1,0.1,3.2,0.1c1.2,0,1.9,0,2.9-0.1 c0.2,0.1,0.3,0.6,0.1,0.8L87,10c-0.5,0.1-1,0.2-1.2,0.6c-0.4,0.9-0.4,3.3-0.4,5.4V22.6z"></path> <path class="st0" d="M99.8,21.8c0,3.9-2.8,6-6,6c-3.2,0-5.8-2-5.8-5.6c0-3.7,2.8-6,6-6C97.1,16.1,99.8,18.2,99.8,21.8z M94.1,26.6c1.9,0,2.5-2.3,2.5-4.4c0-2.3-0.8-5.1-2.8-5.1c-1.4,0-2.5,1.4-2.5,4.5C91.2,24.2,92.1,26.6,94.1,26.6z"></path> <path class="st0" d="M102.6,20c0-1.2,0-1.6-0.7-2l-0.3-0.2c-0.1-0.1-0.1-0.5,0-0.6c1.2-0.4,2.7-1,3.5-1.5c0.2,0,0.3,0.1,0.4,0.2 c0,0.5-0.1,1-0.1,1.2c0,0.2,0.1,0.3,0.3,0.3c0.9-0.6,1.8-1.4,2.7-1.4c1,0,1.5,0.6,1.5,1.4c0,1.1-0.8,1.6-1.5,1.6 c-0.3,0-0.5-0.1-0.7-0.2c-0.7-0.5-1.2-0.5-1.3-0.5c-0.6,0-0.8,0.6-0.8,2V24c0,2,0.1,2.3,1.1,2.5l1.1,0.1 c0.2,0.2,0.2,0.7-0.1,0.8c-1.7-0.1-2.6-0.1-3.6-0.1c-0.9,0-1.8,0-2.9,0.1c-0.2-0.1-0.2-0.6-0.1-0.8l0.5-0.1c0.9-0.2,1-0.4,1-2.5 V20z"></path> <path class="st0" d="M115.8,17.7c-0.5,0-0.5,0.1-0.5,0.9v4.3c0,1.7,0.2,3.3,2,3.3c0.6,0,0.9-0.2,1.3-0.5c0.2,0,0.4,0.2,0.4,0.6 c-0.6,0.8-1.8,1.5-3.5,1.5c-2.6,0-3.1-1.5-3.1-3.5v-5.6c0-1-0.1-1-0.5-1h-1c-0.3-0.1-0.3-0.6-0.1-0.7c0.9-0.4,1.6-0.7,2.2-1.2 c0.5-0.4,1.1-1,1.5-1.7c0.2-0.2,0.6-0.1,0.8,0.1v1.7c0,0.4,0,0.5,0.5,0.5h2.7c0.2,0.1,0.2,0.3,0.2,0.6c0,0.3-0.1,0.6-0.4,0.7 H115.8z"></path> <path class="st0" d="M123.9,16.9c0,0.3,0.1,0.5,0.2,0.5c1-0.7,2.2-1.3,3.5-1.3c2.4,0,3.5,1.5,3.5,3.9V24c0,2,0.1,2.4,1.1,2.5 l0.6,0.1c0.2,0.2,0.2,0.7-0.1,0.8c-1.2-0.1-2.1-0.1-3.1-0.1c-0.9,0-1.9,0-2.8,0.1c-0.2-0.1-0.2-0.6-0.1-0.8l0.4-0.1 c0.9-0.1,1-0.5,1-2.5v-3.9c0-1.3-0.6-2.4-2.2-2.4c-0.9,0-1.5,0.4-1.9,0.8c-0.3,0.3-0.3,0.7-0.3,1.8V24c0,2,0.1,2.4,1,2.5 l0.4,0.1c0.2,0.2,0.2,0.7-0.1,0.8c-1-0.1-1.9-0.1-2.9-0.1c-0.9,0-1.8,0-3,0.1c-0.2-0.1-0.2-0.6-0.1-0.8l0.6-0.1 c0.9-0.1,1-0.4,1-2.5V12.2c0-1.9-0.1-2-0.6-2.4L120,9.5c-0.2-0.1-0.2-0.6,0-0.6c1.1-0.3,2.5-0.9,3.6-1.3c0.2,0,0.3,0.1,0.4,0.2 c-0.1,1.1-0.1,2.8-0.1,4V16.9z"></path> <path class="st0" d="M156.6,13.7c-0.2,0.2-0.7,0.2-0.9,0.1c-0.5-1.7-1.7-4-5.4-4c-3.5,0-7,2.5-7,8.1c0,5.9,3.7,8.8,7.2,8.8 c3.5,0,5-2.3,5.8-4.1c0.2-0.2,0.7-0.1,0.8,0.1c-0.2,1.9-0.9,3.7-1.3,4.2c-0.3,0.1-0.7,0.2-1,0.2c-0.6,0.2-2.5,0.7-4.3,0.7 c-2.7,0-5.1-0.6-7.1-1.9c-2.2-1.5-3.9-4-3.9-7.6c0-3.2,1.4-5.7,3.5-7.3c2-1.5,4.8-2.3,7.6-2.3c1.6,0,3.5,0.3,4.8,0.6 c0.3,0.1,0.5,0.1,0.8,0.2C156.3,10.1,156.3,11.7,156.6,13.7z"></path> <path class="st0" d="M167.2,23.8c-0.1,1.6,0.3,2.4,1.3,2.4c0.5,0,0.9-0.3,0.9-0.3c0.1,0,0.3,0.3,0.2,0.6 c-0.6,0.8-1.9,1.2-2.8,1.2c-0.7,0-1.5-0.2-2-0.8c-0.2-0.2-0.3-0.3-0.4-0.3c-0.1,0-0.3,0.1-0.7,0.4c-0.5,0.3-1.4,0.7-2.3,0.7 c-1.9,0-2.8-1.3-2.8-2.7c0-1,0.4-1.9,2.3-2.6c1-0.3,2-0.7,3-1.1c0.6-0.2,0.6-0.4,0.6-0.7l0-0.7c0.1-1.4-0.3-2.6-1.7-2.6 c-0.8,0-1.4,0.4-1.5,1.2c-0.1,0.5-0.2,0.8-0.5,1c-0.4,0.2-1.2,0.5-1.8,0.5c-0.4,0-0.5-0.2-0.5-0.4c0-0.3,0.2-0.9,1.1-1.8 c0.9-0.8,2.8-1.7,4.3-1.7c2.2,0,3.5,1,3.4,3.5L167.2,23.8z M164.5,22.9c0-0.3-0.1-0.5-0.2-0.5c-0.2,0-0.7,0.1-1.2,0.3 c-0.8,0.3-1.5,0.7-1.5,1.9c0,0.7,0.5,1.6,1.5,1.6c1,0,1.3-0.7,1.3-1.3L164.5,22.9z"></path> <path class="st0" d="M174.7,24c0,2,0.1,2.4,1,2.5l0.4,0.1c0.2,0.2,0.2,0.7-0.1,0.8c-1-0.1-1.9-0.1-2.9-0.1c-0.9,0-1.8,0-3,0.1 c-0.2-0.1-0.2-0.6-0.1-0.8l0.6-0.1c0.9-0.1,1-0.4,1-2.5V20c0-1.2,0-1.6-0.7-2l-0.3-0.2c-0.1-0.1-0.1-0.5,0-0.6 c1.2-0.3,2.7-1,3.6-1.5c0.2,0,0.3,0.1,0.4,0.2c-0.1,0.5-0.1,1-0.1,1.3c0,0.2,0.1,0.2,0.2,0.3c1.3-0.7,2.1-1.4,3.8-1.4 c2.2,0,3.3,1.5,3.3,3.7V24c0,2,0.1,2.4,1.1,2.5l0.6,0.1c0.2,0.2,0.2,0.7-0.1,0.8c-1.2-0.1-2.1-0.1-3.1-0.1c-0.9,0-1.9,0-2.8,0.1 c-0.2-0.1-0.2-0.6-0.1-0.8l0.4-0.1c0.9-0.1,1.1-0.5,1.1-2.5v-3.8c0-1.4-0.6-2.5-2.2-2.5c-0.9,0-1.5,0.4-1.8,0.9 c-0.4,0.5-0.4,0.7-0.4,1.8V24z"></path> <path class="st0" d="M184,32.7c0-0.9,0.6-1.2,1.4-1.2l0.6,0c0.4,0,0.9-0.2,1.2-0.6c0.6-0.8,1.4-2.3,1.4-3.5c0-0.4-0.1-1-0.5-2 l-2.2-5.8c-0.7-1.7-0.9-2.1-1.9-2.3l-0.6-0.1c-0.2-0.2-0.2-0.7,0.1-0.8c0.9,0.1,2,0.1,3.1,0.1c1,0,2,0,2.9-0.1 c0.2,0.1,0.2,0.6,0.1,0.8l-0.8,0.2c-0.6,0.1-0.7,0.2-0.2,1.5l1.2,3.2c0.5,1.4,0.9,2.1,0.9,2.1c0.1,0,0.5-0.9,0.9-1.7l0.8-1.9 c0.7-1.5,1-2.6,1-2.7c0-0.2-0.1-0.4-0.5-0.5l-0.9-0.2c-0.2-0.2-0.2-0.7,0.1-0.8c1,0.1,2,0.1,2.6,0.1c0.7,0,1.5,0,2.2-0.1 c0.3,0.1,0.3,0.6,0.1,0.8c-0.3,0.1-1.2,0.2-1.6,0.6c-0.3,0.3-0.8,1.1-1.7,2.8l-1.4,2.8c-0.9,1.9-3.4,6.8-4.6,9.3 c-0.5,1-1.2,1.5-2.1,1.5C184.5,34.2,184,33.5,184,32.7z"></path> <path class="st0" d="M208.5,21.8c0,3.9-2.8,6-6,6c-3.2,0-5.8-2-5.8-5.6c0-3.7,2.8-6,6-6C205.8,16.1,208.5,18.2,208.5,21.8z M202.8,26.6c1.9,0,2.5-2.3,2.5-4.4c0-2.3-0.8-5.1-2.8-5.1c-1.4,0-2.5,1.4-2.5,4.5C199.9,24.2,200.8,26.6,202.8,26.6z"></path> <path class="st0" d="M214.1,24c0,2,0.1,2.4,1,2.5l0.4,0.1c0.2,0.2,0.2,0.7-0.1,0.8c-1-0.1-1.9-0.1-2.9-0.1c-0.9,0-1.8,0-3,0.1 c-0.2-0.1-0.2-0.6-0.1-0.8l0.6-0.1c0.9-0.1,1-0.4,1-2.5V20c0-1.2,0-1.6-0.7-2l-0.3-0.2c-0.1-0.1-0.1-0.5,0-0.6 c1.2-0.3,2.7-1,3.6-1.5c0.2,0,0.3,0.1,0.4,0.2c-0.1,0.5-0.1,1-0.1,1.3c0,0.2,0.1,0.2,0.2,0.3c1.3-0.7,2.1-1.4,3.8-1.4 c2.2,0,3.3,1.5,3.3,3.7V24c0,2,0.1,2.4,1.1,2.5l0.6,0.1c0.2,0.2,0.2,0.7-0.1,0.8c-1.2-0.1-2.1-0.1-3.1-0.1c-0.9,0-1.9,0-2.8,0.1 c-0.2-0.1-0.2-0.6-0.1-0.8l0.4-0.1c0.9-0.1,1.1-0.5,1.1-2.5v-3.8c0-1.4-0.6-2.5-2.2-2.5c-0.9,0-1.5,0.4-1.8,0.9 c-0.4,0.5-0.4,0.7-0.4,1.8V24z"></path> </g> </g> <g> <rect x="67.4" y="33.7" class="st1" width="111.6" height="1"></rect> <rect x="192.2" y="33.7" class="st1" width="30.7" height="1"></rect> </g> <g> <path class="st0" d="M73.1,41.1h1.3v7.2h-1.1l-4-5.2v5.2H68v-7.2h1.2l3.9,5V41.1z"></path> <path class="st0" d="M84,42.2h-4.1v1.9h3.6v1.1h-3.6v1.9h4.2v1.1h-5.4v-7.2H84V42.2z"></path> <path class="st0" d="M90.9,48.3h-1.3v-6.1h-2.3v-1.2h5.9v1.2h-2.3V48.3z"></path> <path class="st0" d="M101.1,41h1.1l1.8,5.4l1.7-5.4h1.3l-2.5,7.3h-1.1l-1.8-5.2l-1.8,5.2h-1.1l-2.5-7.3h1.4l1.7,5.4L101.1,41z"></path> <path class="st0" d="M113.6,48.4c-2.2,0-3.8-1.7-3.8-3.7c0-2,1.6-3.8,3.8-3.8c2.2,0,3.8,1.7,3.8,3.7 C117.4,46.7,115.8,48.4,113.6,48.4z M113.6,42.1c-1.4,0-2.4,1.1-2.4,2.6c0,1.4,1,2.6,2.5,2.6c1.4,0,2.4-1.1,2.4-2.6 S115,42.1,113.6,42.1z"></path> <path class="st0" d="M125.8,48.3l-1.8-2.5h-1.6v2.5h-1.3v-7.2h3.2c1.7,0,2.7,0.9,2.7,2.3c0,1.2-0.7,1.9-1.7,2.2l2,2.7H125.8z M124.3,42.2h-1.9v2.4h1.9c0.9,0,1.5-0.5,1.5-1.2C125.8,42.6,125.2,42.2,124.3,42.2z"></path> <path class="st0" d="M137.3,48.3h-1.5l-2.5-3.3l-1.1,1.2v2.1h-1.3v-7.2h1.3v3.6l3.4-3.6h1.6l-3,3.1L137.3,48.3z"></path> <path class="st0" d="M149.4,48.4c-2.2,0-3.8-1.7-3.8-3.7c0-2,1.6-3.8,3.8-3.8c2.2,0,3.8,1.7,3.8,3.7 C153.2,46.7,151.6,48.4,149.4,48.4z M149.4,42.1c-1.4,0-2.4,1.1-2.4,2.6c0,1.4,1,2.6,2.5,2.6c1.4,0,2.4-1.1,2.4-2.6 S150.8,42.1,149.4,42.1z"></path> <path class="st0" d="M162.3,42.2h-4.1v2h3.7v1.2h-3.7v3h-1.3v-7.2h5.4V42.2z"></path> <path class="st0" d="M174.6,48.4c-2.1,0-3.7-1.6-3.7-3.7c0-2.1,1.5-3.8,3.7-3.8c1.3,0,2.1,0.5,2.8,1.1l-0.8,0.9 c-0.6-0.5-1.2-0.9-2-0.9c-1.4,0-2.4,1.1-2.4,2.6c0,1.4,1,2.6,2.4,2.6c0.9,0,1.5-0.4,2.1-0.9l0.8,0.8 C176.8,47.9,176,48.4,174.6,48.4z"></path> <path class="st0" d="M187.9,48.3h-1.3l-0.7-1.7h-3.4l-0.7,1.7h-1.3l3.2-7.3h1.2L187.9,48.3z M184.1,42.5l-1.2,2.9h2.5L184.1,42.5 z"></path> <path class="st0" d="M196,48.3l-1.8-2.5h-1.6v2.5h-1.3v-7.2h3.2c1.7,0,2.7,0.9,2.7,2.3c0,1.2-0.7,1.9-1.7,2.2l2,2.7H196z M194.5,42.2h-1.9v2.4h1.9c0.9,0,1.5-0.5,1.5-1.2C196,42.6,195.4,42.2,194.5,42.2z"></path> <path class="st0" d="M206.4,42.2h-4.1v1.9h3.6v1.1h-3.6v1.9h4.2v1.1H201v-7.2h5.4V42.2z"></path> </g> </g> </g> </svg> 