<svg xmlns="http://www.w3.org/2000/svg" xmlns:xlink="http://www.w3.org/1999/xlink" width="200" zoomAndPan="magnify" viewBox="0 0 150 56.249996" height="75" preserveAspectRatio="xMidYMid meet" version="1.0"><defs><g/><clipPath id="6e737aad4d"><path d="M 6.539062 20.792969 L 23.648438 20.792969 L 23.648438 46.457031 L 6.539062 46.457031 Z M 6.539062 20.792969 " clip-rule="nonzero"/></clipPath><clipPath id="5ecc19ef64"><path d="M 15.09375 20.792969 L 6.539062 20.792969 L 15.09375 46.457031 L 23.648438 46.457031 Z M 15.09375 20.792969 " clip-rule="nonzero"/></clipPath><clipPath id="5a24ab4db7"><path d="M 0.539062 0.792969 L 17.648438 0.792969 L 17.648438 26.457031 L 0.539062 26.457031 Z M 0.539062 0.792969 " clip-rule="nonzero"/></clipPath><clipPath id="fb219b315b"><path d="M 9.09375 0.792969 L 0.539062 0.792969 L 9.09375 26.457031 L 17.648438 26.457031 Z M 9.09375 0.792969 " clip-rule="nonzero"/></clipPath><clipPath id="1f3d2210a9"><rect x="0" width="18" y="0" height="27"/></clipPath><clipPath id="928adfe00f"><path d="M 20.464844 11.421875 L 37.574219 11.421875 L 37.574219 37.085938 L 20.464844 37.085938 Z M 20.464844 11.421875 " clip-rule="nonzero"/></clipPath><clipPath id="a6918f7e13"><path d="M 29.019531 11.421875 L 37.574219 11.421875 L 29.019531 37.085938 L 20.464844 37.085938 Z M 29.019531 11.421875 " clip-rule="nonzero"/></clipPath><clipPath id="5f705d2bd3"><path d="M 0.464844 0.421875 L 17.574219 0.421875 L 17.574219 26.085938 L 0.464844 26.085938 Z M 0.464844 0.421875 " clip-rule="nonzero"/></clipPath><clipPath id="532d8d17fa"><path d="M 9.019531 0.421875 L 17.574219 0.421875 L 9.019531 26.085938 L 0.464844 26.085938 Z M 9.019531 0.421875 " clip-rule="nonzero"/></clipPath><clipPath id="7d9a16e014"><rect x="0" width="18" y="0" height="27"/></clipPath><clipPath id="ca7bbd226c"><path d="M 0.300781 4 L 15 4 L 15 17 L 0.300781 17 Z M 0.300781 4 " clip-rule="nonzero"/></clipPath><clipPath id="164004e52d"><rect x="0" width="104" y="0" height="21"/></clipPath><clipPath id="cf825a0289"><rect x="0" width="102" y="0" height="7"/></clipPath></defs><g clip-path="url(#6e737aad4d)"><g clip-path="url(#5ecc19ef64)"><g transform="matrix(1, 0, 0, 1, 6, 20)"><g clip-path="url(#1f3d2210a9)"><g clip-path="url(#5a24ab4db7)"><g clip-path="url(#fb219b315b)"><path fill="#00e5a0" d="M 0.539062 0.792969 L 17.648438 0.792969 L 17.648438 26.457031 L 0.539062 26.457031 Z M 0.539062 0.792969 " fill-opacity="1" fill-rule="nonzero"/></g></g></g></g></g></g><g clip-path="url(#928adfe00f)"><g clip-path="url(#a6918f7e13)"><g transform="matrix(1, 0, 0, 1, 20, 11)"><g clip-path="url(#7d9a16e014)"><g clip-path="url(#5f705d2bd3)"><g clip-path="url(#532d8d17fa)"><path fill="#00e5a0" d="M 0.464844 0.421875 L 17.574219 0.421875 L 17.574219 26.085938 L 0.464844 26.085938 Z M 0.464844 0.421875 " fill-opacity="1" fill-rule="nonzero"/></g></g></g></g></g></g><g transform="matrix(1, 0, 0, 1, 40, 22)"><g clip-path="url(#164004e52d)"><g clip-path="url(#ca7bbd226c)"><g fill="#061510" fill-opacity="1"><g transform="translate(0.649153, 16.254864)"><g><path d="M 4.625 0 L 0.296875 -12.1875 L 4.484375 -12.1875 L 6.921875 -4.03125 L 7 -4.03125 L 9.453125 -12.1875 L 13.453125 -12.1875 L 9.15625 0 Z M 4.625 0 "/></g></g></g></g><g fill="#061510" fill-opacity="1"><g transform="translate(14.42124, 16.254864)"><g><path d="M 1.3125 -12.1875 L 11.84375 -12.1875 L 11.84375 -9.265625 L 5.21875 -9.265625 L 5.21875 -7.578125 L 10.890625 -7.578125 L 10.890625 -4.78125 L 5.21875 -4.78125 L 5.21875 -2.921875 L 11.96875 -2.921875 L 11.96875 0 L 1.3125 0 Z M 1.3125 -12.1875 "/></g></g></g><g fill="#061510" fill-opacity="1"><g transform="translate(27.202021, 16.254864)"><g><path d="M 12.875 -8.4375 C 12.875 -7.695312 12.671875 -7.023438 12.265625 -6.421875 C 11.867188 -5.816406 11.285156 -5.375 10.515625 -5.09375 L 13.21875 0 L 8.828125 0 L 6.671875 -4.4375 L 5.21875 -4.4375 L 5.21875 0 L 1.3125 0 L 1.3125 -12.1875 L 8.765625 -12.1875 C 9.640625 -12.1875 10.382812 -12.015625 11 -11.671875 C 11.625 -11.335938 12.09375 -10.882812 12.40625 -10.3125 C 12.71875 -9.738281 12.875 -9.113281 12.875 -8.4375 Z M 8.890625 -8.28125 C 8.890625 -8.601562 8.78125 -8.867188 8.5625 -9.078125 C 8.351562 -9.296875 8.097656 -9.40625 7.796875 -9.40625 L 5.21875 -9.40625 L 5.21875 -7.15625 L 7.796875 -7.15625 C 8.097656 -7.15625 8.351562 -7.265625 8.5625 -7.484375 C 8.78125 -7.703125 8.890625 -7.96875 8.890625 -8.28125 Z M 8.890625 -8.28125 "/></g></g></g><g fill="#061510" fill-opacity="1"><g transform="translate(40.974108, 16.254864)"><g><path d="M 1.484375 0 L 1.484375 -12.1875 L 5.40625 -12.1875 L 5.40625 0 Z M 1.484375 0 "/></g></g></g><g fill="#061510" fill-opacity="1"><g transform="translate(47.860154, 16.254864)"><g><path d="M 7.109375 -12.390625 C 8.921875 -12.390625 10.347656 -11.9375 11.390625 -11.03125 C 12.441406 -10.132812 12.96875 -8.847656 12.96875 -7.171875 L 9.234375 -7.171875 C 9.234375 -7.878906 9.046875 -8.4375 8.671875 -8.84375 C 8.304688 -9.257812 7.78125 -9.46875 7.09375 -9.46875 C 6.300781 -9.46875 5.71875 -9.21875 5.34375 -8.71875 C 4.976562 -8.226562 4.796875 -7.539062 4.796875 -6.65625 L 4.796875 -5.515625 C 4.796875 -4.648438 4.976562 -3.960938 5.34375 -3.453125 C 5.71875 -2.953125 6.289062 -2.703125 7.0625 -2.703125 C 7.820312 -2.703125 8.394531 -2.894531 8.78125 -3.28125 C 9.164062 -3.675781 9.359375 -4.226562 9.359375 -4.9375 L 12.96875 -4.9375 C 12.96875 -3.269531 12.457031 -1.992188 11.4375 -1.109375 C 10.414062 -0.222656 8.972656 0.21875 7.109375 0.21875 C 5.035156 0.21875 3.460938 -0.3125 2.390625 -1.375 C 1.328125 -2.4375 0.796875 -4.007812 0.796875 -6.09375 C 0.796875 -8.164062 1.328125 -9.734375 2.390625 -10.796875 C 3.460938 -11.859375 5.035156 -12.390625 7.109375 -12.390625 Z M 7.109375 -12.390625 "/></g></g></g><g fill="#061510" fill-opacity="1"><g transform="translate(61.632242, 16.254864)"><g><path d="M 7.359375 -12.390625 C 9.460938 -12.390625 11.085938 -11.851562 12.234375 -10.78125 C 13.378906 -9.707031 13.953125 -8.144531 13.953125 -6.09375 C 13.953125 -4.039062 13.378906 -2.472656 12.234375 -1.390625 C 11.085938 -0.316406 9.460938 0.21875 7.359375 0.21875 C 5.265625 0.21875 3.644531 -0.3125 2.5 -1.375 C 1.363281 -2.445312 0.796875 -4.019531 0.796875 -6.09375 C 0.796875 -8.15625 1.363281 -9.71875 2.5 -10.78125 C 3.644531 -11.851562 5.265625 -12.390625 7.359375 -12.390625 Z M 7.359375 -9.46875 C 6.523438 -9.46875 5.890625 -9.210938 5.453125 -8.703125 C 5.015625 -8.203125 4.796875 -7.519531 4.796875 -6.65625 L 4.796875 -5.515625 C 4.796875 -4.660156 5.015625 -3.976562 5.453125 -3.46875 C 5.890625 -2.957031 6.523438 -2.703125 7.359375 -2.703125 C 8.203125 -2.703125 8.84375 -2.957031 9.28125 -3.46875 C 9.726562 -3.976562 9.953125 -4.660156 9.953125 -5.515625 L 9.953125 -6.65625 C 9.953125 -7.519531 9.726562 -8.203125 9.28125 -8.703125 C 8.84375 -9.210938 8.203125 -9.46875 7.359375 -9.46875 Z M 7.359375 -9.46875 "/></g></g></g><g fill="#061510" fill-opacity="1"><g transform="translate(76.377938, 16.254864)"><g><path d="M 12.875 -8.4375 C 12.875 -7.695312 12.671875 -7.023438 12.265625 -6.421875 C 11.867188 -5.816406 11.285156 -5.375 10.515625 -5.09375 L 13.21875 0 L 8.828125 0 L 6.671875 -4.4375 L 5.21875 -4.4375 L 5.21875 0 L 1.3125 0 L 1.3125 -12.1875 L 8.765625 -12.1875 C 9.640625 -12.1875 10.382812 -12.015625 11 -11.671875 C 11.625 -11.335938 12.09375 -10.882812 12.40625 -10.3125 C 12.71875 -9.738281 12.875 -9.113281 12.875 -8.4375 Z M 8.890625 -8.28125 C 8.890625 -8.601562 8.78125 -8.867188 8.5625 -9.078125 C 8.351562 -9.296875 8.097656 -9.40625 7.796875 -9.40625 L 5.21875 -9.40625 L 5.21875 -7.15625 L 7.796875 -7.15625 C 8.097656 -7.15625 8.351562 -7.265625 8.5625 -7.484375 C 8.78125 -7.703125 8.890625 -7.96875 8.890625 -8.28125 Z M 8.890625 -8.28125 "/></g></g></g><g fill="#061510" fill-opacity="1"><g transform="translate(90.150025, 16.254864)"><g><path d="M 1.3125 -12.1875 L 11.84375 -12.1875 L 11.84375 -9.265625 L 5.21875 -9.265625 L 5.21875 -7.578125 L 10.890625 -7.578125 L 10.890625 -4.78125 L 5.21875 -4.78125 L 5.21875 -2.921875 L 11.96875 -2.921875 L 11.96875 0 L 1.3125 0 Z M 1.3125 -12.1875 "/></g></g></g></g></g><g transform="matrix(1, 0, 0, 1, 43, 40)"><g clip-path="url(#cf825a0289)"><g fill="#061510" fill-opacity="1"><g transform="translate(1.261164, 5.148503)"><g><path d="M 1.890625 0.0625 C 1.546875 0.0625 1.25 -0.0078125 1 -0.15625 C 0.757812 -0.3125 0.570312 -0.523438 0.4375 -0.796875 C 0.300781 -1.066406 0.234375 -1.378906 0.234375 -1.734375 C 0.234375 -2.085938 0.300781 -2.398438 0.4375 -2.671875 C 0.570312 -2.941406 0.757812 -3.148438 1 -3.296875 C 1.25 -3.453125 1.546875 -3.53125 1.890625 -3.53125 C 2.285156 -3.53125 2.609375 -3.4375 2.859375 -3.25 C 3.109375 -3.0625 3.269531 -2.796875 3.34375 -2.453125 L 2.875 -2.453125 C 2.820312 -2.671875 2.710938 -2.84375 2.546875 -2.96875 C 2.390625 -3.101562 2.171875 -3.171875 1.890625 -3.171875 C 1.640625 -3.171875 1.421875 -3.113281 1.234375 -3 C 1.054688 -2.882812 0.914062 -2.71875 0.8125 -2.5 C 0.707031 -2.289062 0.65625 -2.035156 0.65625 -1.734375 C 0.65625 -1.441406 0.707031 -1.1875 0.8125 -0.96875 C 0.914062 -0.757812 1.054688 -0.597656 1.234375 -0.484375 C 1.421875 -0.367188 1.640625 -0.3125 1.890625 -0.3125 C 2.171875 -0.3125 2.390625 -0.375 2.546875 -0.5 C 2.710938 -0.625 2.820312 -0.796875 2.875 -1.015625 L 3.34375 -1.015625 C 3.269531 -0.671875 3.109375 -0.40625 2.859375 -0.21875 C 2.609375 -0.03125 2.285156 0.0625 1.890625 0.0625 Z M 1.890625 0.0625 "/></g></g></g><g fill="#061510" fill-opacity="1"><g transform="translate(7.976324, 5.148503)"><g><path d="M 1.953125 0.0625 C 1.609375 0.0625 1.304688 -0.0078125 1.046875 -0.15625 C 0.796875 -0.3125 0.597656 -0.523438 0.453125 -0.796875 C 0.304688 -1.066406 0.234375 -1.378906 0.234375 -1.734375 C 0.234375 -2.085938 0.304688 -2.398438 0.453125 -2.671875 C 0.597656 -2.941406 0.796875 -3.148438 1.046875 -3.296875 C 1.304688 -3.453125 1.609375 -3.53125 1.953125 -3.53125 C 2.296875 -3.53125 2.59375 -3.453125 2.84375 -3.296875 C 3.101562 -3.148438 3.300781 -2.941406 3.4375 -2.671875 C 3.582031 -2.398438 3.65625 -2.085938 3.65625 -1.734375 C 3.65625 -1.378906 3.582031 -1.066406 3.4375 -0.796875 C 3.300781 -0.523438 3.101562 -0.3125 2.84375 -0.15625 C 2.59375 -0.0078125 2.296875 0.0625 1.953125 0.0625 Z M 1.953125 -0.3125 C 2.203125 -0.3125 2.421875 -0.367188 2.609375 -0.484375 C 2.804688 -0.597656 2.957031 -0.757812 3.0625 -0.96875 C 3.175781 -1.1875 3.234375 -1.441406 3.234375 -1.734375 C 3.234375 -2.035156 3.175781 -2.289062 3.0625 -2.5 C 2.957031 -2.71875 2.804688 -2.882812 2.609375 -3 C 2.421875 -3.113281 2.203125 -3.171875 1.953125 -3.171875 C 1.691406 -3.171875 1.460938 -3.113281 1.265625 -3 C 1.078125 -2.882812 0.925781 -2.71875 0.8125 -2.5 C 0.707031 -2.289062 0.65625 -2.035156 0.65625 -1.734375 C 0.65625 -1.441406 0.707031 -1.1875 0.8125 -0.96875 C 0.925781 -0.757812 1.078125 -0.597656 1.265625 -0.484375 C 1.460938 -0.367188 1.691406 -0.3125 1.953125 -0.3125 Z M 1.953125 -0.3125 "/></g></g></g><g fill="#061510" fill-opacity="1"><g transform="translate(15.009598, 5.148503)"><g><path d="M 0.375 0 L 0.375 -3.484375 L 0.859375 -3.484375 L 2.109375 -1.046875 L 3.34375 -3.484375 L 3.84375 -3.484375 L 3.84375 0 L 3.421875 0 L 3.421875 -2.734375 L 2.265625 -0.5 L 1.953125 -0.5 L 0.78125 -2.734375 L 0.78125 0 Z M 0.375 0 "/></g></g></g><g fill="#061510" fill-opacity="1"><g transform="translate(22.356019, 5.148503)"><g><path d="M 0.375 0 L 0.375 -3.484375 L 1.515625 -3.484375 C 1.785156 -3.484375 2.003906 -3.4375 2.171875 -3.34375 C 2.347656 -3.25 2.476562 -3.125 2.5625 -2.96875 C 2.65625 -2.820312 2.703125 -2.65625 2.703125 -2.46875 C 2.703125 -2.28125 2.660156 -2.109375 2.578125 -1.953125 C 2.492188 -1.796875 2.363281 -1.671875 2.1875 -1.578125 C 2.007812 -1.492188 1.785156 -1.453125 1.515625 -1.453125 L 0.78125 -1.453125 L 0.78125 0 Z M 0.78125 -1.796875 L 1.5 -1.796875 C 1.78125 -1.796875 1.976562 -1.851562 2.09375 -1.96875 C 2.207031 -2.09375 2.265625 -2.257812 2.265625 -2.46875 C 2.265625 -2.675781 2.207031 -2.835938 2.09375 -2.953125 C 1.976562 -3.066406 1.78125 -3.125 1.5 -3.125 L 0.78125 -3.125 Z M 0.78125 -1.796875 "/></g></g></g><g fill="#061510" fill-opacity="1"><g transform="translate(28.370332, 5.148503)"><g><path d="M 0.375 0 L 0.375 -3.484375 L 0.78125 -3.484375 L 0.78125 -0.328125 L 2.40625 -0.328125 L 2.40625 0 Z M 0.375 0 "/></g></g></g><g fill="#061510" fill-opacity="1"><g transform="translate(34.116241, 5.148503)"><g><path d="M 0.375 0 L 0.375 -3.484375 L 0.78125 -3.484375 L 0.78125 0 Z M 0.375 0 "/></g></g></g><g fill="#061510" fill-opacity="1"><g transform="translate(38.405786, 5.148503)"><g><path d="M 0.15625 0 L 1.4375 -3.484375 L 1.875 -3.484375 L 3.15625 0 L 2.703125 0 L 2.390625 -0.890625 L 0.90625 -0.890625 L 0.59375 0 Z M 1.03125 -1.234375 L 2.265625 -1.234375 L 1.65625 -2.953125 Z M 1.03125 -1.234375 "/></g></g></g><g fill="#061510" fill-opacity="1"><g transform="translate(44.842599, 5.148503)"><g><path d="M 0.375 0 L 0.375 -3.484375 L 0.78125 -3.484375 L 2.640625 -0.6875 L 2.640625 -3.484375 L 3.0625 -3.484375 L 3.0625 0 L 2.640625 0 L 0.78125 -2.78125 L 0.78125 0 Z M 0.375 0 "/></g></g></g><g fill="#061510" fill-opacity="1"><g transform="translate(51.40367, 5.148503)"><g><path d="M 1.890625 0.0625 C 1.546875 0.0625 1.25 -0.0078125 1 -0.15625 C 0.757812 -0.3125 0.570312 -0.523438 0.4375 -0.796875 C 0.300781 -1.066406 0.234375 -1.378906 0.234375 -1.734375 C 0.234375 -2.085938 0.300781 -2.398438 0.4375 -2.671875 C 0.570312 -2.941406 0.757812 -3.148438 1 -3.296875 C 1.25 -3.453125 1.546875 -3.53125 1.890625 -3.53125 C 2.285156 -3.53125 2.609375 -3.4375 2.859375 -3.25 C 3.109375 -3.0625 3.269531 -2.796875 3.34375 -2.453125 L 2.875 -2.453125 C 2.820312 -2.671875 2.710938 -2.84375 2.546875 -2.96875 C 2.390625 -3.101562 2.171875 -3.171875 1.890625 -3.171875 C 1.640625 -3.171875 1.421875 -3.113281 1.234375 -3 C 1.054688 -2.882812 0.914062 -2.71875 0.8125 -2.5 C 0.707031 -2.289062 0.65625 -2.035156 0.65625 -1.734375 C 0.65625 -1.441406 0.707031 -1.1875 0.8125 -0.96875 C 0.914062 -0.757812 1.054688 -0.597656 1.234375 -0.484375 C 1.421875 -0.367188 1.640625 -0.3125 1.890625 -0.3125 C 2.171875 -0.3125 2.390625 -0.375 2.546875 -0.5 C 2.710938 -0.625 2.820312 -0.796875 2.875 -1.015625 L 3.34375 -1.015625 C 3.269531 -0.671875 3.109375 -0.40625 2.859375 -0.21875 C 2.609375 -0.03125 2.285156 0.0625 1.890625 0.0625 Z M 1.890625 0.0625 "/></g></g></g><g fill="#061510" fill-opacity="1"><g transform="translate(58.118831, 5.148503)"><g><path d="M 0.375 0 L 0.375 -3.484375 L 2.515625 -3.484375 L 2.515625 -3.140625 L 0.78125 -3.140625 L 0.78125 -1.921875 L 2.375 -1.921875 L 2.375 -1.578125 L 0.78125 -1.578125 L 0.78125 -0.34375 L 2.515625 -0.34375 L 2.515625 0 Z M 0.375 0 "/></g></g></g><g fill="#061510" fill-opacity="1"><g transform="translate(64.05859, 5.148503)"><g/></g></g><g fill="#061510" fill-opacity="1"><g transform="translate(68.512159, 5.148503)"><g><path d="M 1.859375 0.0625 C 1.535156 0.0625 1.25 -0.0078125 1 -0.15625 C 0.757812 -0.3125 0.570312 -0.523438 0.4375 -0.796875 C 0.300781 -1.066406 0.234375 -1.378906 0.234375 -1.734375 C 0.234375 -2.085938 0.300781 -2.398438 0.4375 -2.671875 C 0.570312 -2.941406 0.765625 -3.148438 1.015625 -3.296875 C 1.273438 -3.453125 1.578125 -3.53125 1.921875 -3.53125 C 2.316406 -3.53125 2.644531 -3.4375 2.90625 -3.25 C 3.164062 -3.0625 3.332031 -2.800781 3.40625 -2.46875 L 2.921875 -2.46875 C 2.878906 -2.675781 2.769531 -2.84375 2.59375 -2.96875 C 2.414062 -3.09375 2.191406 -3.15625 1.921875 -3.15625 C 1.671875 -3.15625 1.445312 -3.097656 1.25 -2.984375 C 1.0625 -2.867188 0.914062 -2.703125 0.8125 -2.484375 C 0.707031 -2.273438 0.65625 -2.023438 0.65625 -1.734375 C 0.65625 -1.441406 0.707031 -1.1875 0.8125 -0.96875 C 0.914062 -0.757812 1.054688 -0.597656 1.234375 -0.484375 C 1.421875 -0.367188 1.632812 -0.3125 1.875 -0.3125 C 2.25 -0.3125 2.53125 -0.421875 2.71875 -0.640625 C 2.90625 -0.859375 3.015625 -1.15625 3.046875 -1.53125 L 2.03125 -1.53125 L 2.03125 -1.859375 L 3.46875 -1.859375 L 3.46875 0 L 3.078125 0 L 3.046875 -0.578125 C 2.921875 -0.367188 2.765625 -0.207031 2.578125 -0.09375 C 2.398438 0.0078125 2.160156 0.0625 1.859375 0.0625 Z M 1.859375 0.0625 "/></g></g></g><g fill="#061510" fill-opacity="1"><g transform="translate(75.411228, 5.148503)"><g><path d="M 0.375 0 L 0.375 -3.484375 L 1.484375 -3.484375 C 1.753906 -3.484375 1.976562 -3.4375 2.15625 -3.34375 C 2.332031 -3.25 2.457031 -3.125 2.53125 -2.96875 C 2.613281 -2.820312 2.65625 -2.648438 2.65625 -2.453125 C 2.65625 -2.234375 2.597656 -2.035156 2.484375 -1.859375 C 2.367188 -1.691406 2.1875 -1.570312 1.9375 -1.5 L 2.703125 0 L 2.203125 0 L 1.5 -1.4375 L 0.78125 -1.4375 L 0.78125 0 Z M 0.78125 -1.765625 L 1.453125 -1.765625 C 1.722656 -1.765625 1.921875 -1.828125 2.046875 -1.953125 C 2.171875 -2.085938 2.234375 -2.253906 2.234375 -2.453125 C 2.234375 -2.660156 2.171875 -2.820312 2.046875 -2.9375 C 1.929688 -3.0625 1.734375 -3.125 1.453125 -3.125 L 0.78125 -3.125 Z M 0.78125 -1.765625 "/></g></g></g><g fill="#061510" fill-opacity="1"><g transform="translate(81.495128, 5.148503)"><g><path d="M 1.953125 0.0625 C 1.609375 0.0625 1.304688 -0.0078125 1.046875 -0.15625 C 0.796875 -0.3125 0.597656 -0.523438 0.453125 -0.796875 C 0.304688 -1.066406 0.234375 -1.378906 0.234375 -1.734375 C 0.234375 -2.085938 0.304688 -2.398438 0.453125 -2.671875 C 0.597656 -2.941406 0.796875 -3.148438 1.046875 -3.296875 C 1.304688 -3.453125 1.609375 -3.53125 1.953125 -3.53125 C 2.296875 -3.53125 2.59375 -3.453125 2.84375 -3.296875 C 3.101562 -3.148438 3.300781 -2.941406 3.4375 -2.671875 C 3.582031 -2.398438 3.65625 -2.085938 3.65625 -1.734375 C 3.65625 -1.378906 3.582031 -1.066406 3.4375 -0.796875 C 3.300781 -0.523438 3.101562 -0.3125 2.84375 -0.15625 C 2.59375 -0.0078125 2.296875 0.0625 1.953125 0.0625 Z M 1.953125 -0.3125 C 2.203125 -0.3125 2.421875 -0.367188 2.609375 -0.484375 C 2.804688 -0.597656 2.957031 -0.757812 3.0625 -0.96875 C 3.175781 -1.1875 3.234375 -1.441406 3.234375 -1.734375 C 3.234375 -2.035156 3.175781 -2.289062 3.0625 -2.5 C 2.957031 -2.71875 2.804688 -2.882812 2.609375 -3 C 2.421875 -3.113281 2.203125 -3.171875 1.953125 -3.171875 C 1.691406 -3.171875 1.460938 -3.113281 1.265625 -3 C 1.078125 -2.882812 0.925781 -2.71875 0.8125 -2.5 C 0.707031 -2.289062 0.65625 -2.035156 0.65625 -1.734375 C 0.65625 -1.441406 0.707031 -1.1875 0.8125 -0.96875 C 0.925781 -0.757812 1.078125 -0.597656 1.265625 -0.484375 C 1.460938 -0.367188 1.691406 -0.3125 1.953125 -0.3125 Z M 1.953125 -0.3125 "/></g></g></g><g fill="#061510" fill-opacity="1"><g transform="translate(88.528402, 5.148503)"><g><path d="M 1.625 0.0625 C 1.382812 0.0625 1.164062 0.0117188 0.96875 -0.078125 C 0.78125 -0.171875 0.628906 -0.316406 0.515625 -0.515625 C 0.398438 -0.710938 0.34375 -0.96875 0.34375 -1.28125 L 0.34375 -3.484375 L 0.75 -3.484375 L 0.75 -1.28125 C 0.75 -0.9375 0.828125 -0.6875 0.984375 -0.53125 C 1.148438 -0.382812 1.367188 -0.3125 1.640625 -0.3125 C 1.898438 -0.3125 2.109375 -0.382812 2.265625 -0.53125 C 2.421875 -0.6875 2.5 -0.9375 2.5 -1.28125 L 2.5 -3.484375 L 2.921875 -3.484375 L 2.921875 -1.28125 C 2.921875 -0.96875 2.863281 -0.710938 2.75 -0.515625 C 2.632812 -0.316406 2.476562 -0.171875 2.28125 -0.078125 C 2.082031 0.0117188 1.863281 0.0625 1.625 0.0625 Z M 1.625 0.0625 "/></g></g></g><g fill="#061510" fill-opacity="1"><g transform="translate(94.925448, 5.148503)"><g><path d="M 0.375 0 L 0.375 -3.484375 L 1.515625 -3.484375 C 1.785156 -3.484375 2.003906 -3.4375 2.171875 -3.34375 C 2.347656 -3.25 2.476562 -3.125 2.5625 -2.96875 C 2.65625 -2.820312 2.703125 -2.65625 2.703125 -2.46875 C 2.703125 -2.28125 2.660156 -2.109375 2.578125 -1.953125 C 2.492188 -1.796875 2.363281 -1.671875 2.1875 -1.578125 C 2.007812 -1.492188 1.785156 -1.453125 1.515625 -1.453125 L 0.78125 -1.453125 L 0.78125 0 Z M 0.78125 -1.796875 L 1.5 -1.796875 C 1.78125 -1.796875 1.976562 -1.851562 2.09375 -1.96875 C 2.207031 -2.09375 2.265625 -2.257812 2.265625 -2.46875 C 2.265625 -2.675781 2.207031 -2.835938 2.09375 -2.953125 C 1.976562 -3.066406 1.78125 -3.125 1.5 -3.125 L 0.78125 -3.125 Z M 0.78125 -1.796875 "/></g></g></g></g></g></svg>